<?xml version="1.0" encoding="utf-8"?>
<!-- Generator: Adobe Illustrator 23.0.3, SVG Export Plug-In . SVG Version: 6.00 Build 0)  -->
<svg version="1.1" id="Capa_1" xmlns="http://www.w3.org/2000/svg" xmlns:xlink="http://www.w3.org/1999/xlink" x="0px" y="0px"
	 viewBox="0 0 29.9 29.9" style="enable-background:new 0 0 29.9 29.9;" xml:space="preserve">
<style type="text/css">
	.st0{display:none;}
	.st1{display:inline;fill:#B0B2B3;}
	.st2{fill:#B0B2B3;}
</style>
<g class="st0">
	<rect x="1.6" y="15.1" class="st1" width="2.2" height="11.2"/>
	<rect x="4.6" y="4.9" class="st1" width="2.2" height="21.4"/>
	<rect x="7.7" y="10.1" class="st1" width="2.2" height="16.2"/>
	<rect x="10.8" y="7.6" class="st1" width="2.2" height="18.7"/>
	<rect x="13.8" y="4.9" class="st1" width="2.2" height="21.4"/>
	<rect x="16.9" y="15.1" class="st1" width="2.2" height="11.2"/>
	<rect x="20" y="10.1" class="st1" width="2.2" height="16.2"/>
	<rect x="23" y="7.6" class="st1" width="2.2" height="18.7"/>
	<rect x="26.1" y="4.9" class="st1" width="2.2" height="21.4"/>
</g>
<g>
	<rect x="2.9" y="10.9" class="st2" width="15" height="2.9"/>
	<rect x="2.9" y="19.2" class="st2" width="10.9" height="2.9"/>
	<rect x="2.9" y="23.3" class="st2" width="18.9" height="2.9"/>
	<rect x="2.9" y="15.1" class="st2" width="24.1" height="2.9"/>
	<path class="st2" d="M7.7,7.3c0,1.3-1.1,2.4-2.4,2.4C4,9.7,2.9,8.6,2.9,7.3C2.9,6,4,4.9,5.3,4.9C6.6,4.9,7.7,6,7.7,7.3"/>
</g>
</svg>
