<?xml version="1.0" encoding="utf-8"?>
<!-- Generator: Adobe Illustrator 23.0.3, SVG Export Plug-In . SVG Version: 6.00 Build 0)  -->
<svg version="1.1" id="Capa_1" xmlns="http://www.w3.org/2000/svg" xmlns:xlink="http://www.w3.org/1999/xlink" x="0px" y="0px"
	 viewBox="0 0 29.9 29.9" style="enable-background:new 0 0 29.9 29.9;" xml:space="preserve">
<style type="text/css">
	.st0{display:none;}
	.st1{display:inline;fill:#B0B2B3;}
	.st2{fill:#B0B2B3;}
</style>
<g class="st0">
	<rect x="1.6" y="15.1" class="st1" width="2.2" height="11.2"/>
	<rect x="4.6" y="4.9" class="st1" width="2.2" height="21.4"/>
	<rect x="7.7" y="10.1" class="st1" width="2.2" height="16.2"/>
	<rect x="10.8" y="7.6" class="st1" width="2.2" height="18.7"/>
	<rect x="13.8" y="4.9" class="st1" width="2.2" height="21.4"/>
	<rect x="16.9" y="15.1" class="st1" width="2.2" height="11.2"/>
	<rect x="20" y="10.1" class="st1" width="2.2" height="16.2"/>
	<rect x="23" y="7.6" class="st1" width="2.2" height="18.7"/>
	<rect x="26.1" y="4.9" class="st1" width="2.2" height="21.4"/>
</g>
<g class="st0">
	<rect x="2.9" y="10.9" class="st1" width="15" height="2.9"/>
	<rect x="2.9" y="19.2" class="st1" width="10.9" height="2.9"/>
	<rect x="2.9" y="23.3" class="st1" width="18.9" height="2.9"/>
	<rect x="2.9" y="15.1" class="st1" width="24.1" height="2.9"/>
	<path class="st1" d="M7.7,7.3c0,1.3-1.1,2.4-2.4,2.4C4,9.7,2.9,8.6,2.9,7.3C2.9,6,4,4.9,5.3,4.9C6.6,4.9,7.7,6,7.7,7.3"/>
</g>
<path class="st2" d="M24.1,21.1c-1.9,3.1-5.3,5.1-9.2,5.1c-6,0-10.9-4.9-10.9-11c0-6.1,4.9-11,10.9-11v11L24.1,21.1z M24.8,19.6
	c0.9-1.4,1.2-3.1,1.2-4.8c0-2.6-0.9-5-2.8-6.7l-0.5-0.4l-6.3,7.2l8.1,5.2L24.8,19.6z M22.8,9.5c1.4,1.4,1.9,3.3,1.9,5.3
	c0,1.2-0.1,2.5-0.7,3.5l-5.8-3.7L22.8,9.5z M15.8,11.9l5.2-5.8c-0.3-0.2-0.5-0.3-0.8-0.5l-4.5,5V11.9z M21.5,6.4l-5.7,6.3V14L22,6.9
	C21.9,6.7,21.7,6.6,21.5,6.4 M15.8,9.7l4-4.4c-0.3-0.1-0.6-0.3-0.9-0.4l-3.1,3.5V9.7z M15.8,7.7l2.6-2.9c-0.3-0.1-0.6-0.2-1-0.3
	l-1.6,1.8V7.7z M15.8,5.6l1.1-1.2c-0.4-0.1-0.7-0.1-1.1-0.2l0,0V5.6z"/>
</svg>
