<?xml version="1.0" encoding="utf-8"?>
<!-- Generator: Adobe Illustrator 23.0.3, SVG Export Plug-In . SVG Version: 6.00 Build 0)  -->
<svg version="1.1" id="Capa_1" xmlns="http://www.w3.org/2000/svg" xmlns:xlink="http://www.w3.org/1999/xlink" x="0px" y="0px"
	 viewBox="0 0 24.3 23.8" style="enable-background:new 0 0 24.3 23.8;" xml:space="preserve">
<style type="text/css">
	.st0{display:none;fill:#676766;}
	.st1{display:none;fill:#FFFFFF;}
	.st2{fill:none;stroke:#676766;stroke-width:2;stroke-linecap:round;stroke-linejoin:round;stroke-miterlimit:10;}
</style>
<rect x="-1.7" y="-1.7" class="st0" width="27.4" height="27.4"/>
<path class="st1" d="M10.6,16.1c3.2,0,5.8-2.6,5.8-5.8c0-3.2-2.6-5.8-5.8-5.8c-3.2,0-5.8,2.6-5.8,5.8C4.8,13.6,7.4,16.1,10.6,16.1
	 M16.6,15l4,4c0.3,0.3,0.3,0.9,0,1.3c-0.3,0.3-0.9,0.3-1.3,0l-4-4c-1.3,1-2.9,1.6-4.7,1.6c-4.2,0-7.6-3.4-7.6-7.6
	c0-4.2,3.4-7.6,7.6-7.6c4.2,0,7.6,3.4,7.6,7.6C18.2,12.1,17.6,13.8,16.6,15"/>
<polyline class="st2" points="21.3,8.3 12.1,15.5 2.9,8.3 "/>
</svg>
