<svg id="Capa_1" data-name="Capa 1" xmlns="http://www.w3.org/2000/svg" viewBox="0 0 2320.52 471.56"><title>esener-survey</title><path d="M1162.5,94.69c20.39-3.71,50.06-6.48,77.41-6.48,43.12,0,71.39,8.34,90.4,25.49,15.31,13.92,24.56,35.23,24.56,59.8,0,40.8-25.95,68.14-58.4,79.27v1.39c23.64,8.35,38,30.59,45.43,63,10.2,43.57,17.62,73.7,24.1,85.75h-41.71c-5.1-9.27-12.06-35.69-20.41-74.63-9.27-43.11-26.42-59.34-63-60.72h-38V403H1162.5ZM1202.83,237h41.27c43.1,0,70.45-23.65,70.45-59.34,0-40.32-29.2-57.95-71.85-57.95-19.47,0-32.91,1.39-39.87,3.24Z" transform="translate(-26.8 -9.62)" style="fill:#00309c"/><polygon points="1068.95 246.87 947.97 246.87 947.97 359.51 1083.33 359.51 1083.33 393.35 907.17 393.35 907.17 80.9 1076.38 80.9 1076.38 114.74 947.97 114.74 947.97 213.49 1068.95 213.49 1068.95 246.87" style="fill:#00309c"/><path d="M629.41,403V90.52h44.5L773.58,248.6c22.72,36.62,41.26,69.54,55.63,101.52l1.4-.47c-3.72-41.72-4.65-79.73-4.65-128.4V90.52h38V403H823.19L724,244.43c-21.79-34.77-42.65-70.46-58-104.31l-1.39.47c2.32,39.4,2.79,77,2.79,128.87V403Z" transform="translate(-26.8 -9.62)" style="fill:#00309c"/><polygon points="535.87 246.87 414.88 246.87 414.88 359.51 550.24 359.51 550.24 393.35 374.09 393.35 374.09 80.9 543.28 80.9 543.28 114.74 414.88 114.74 414.88 213.49 535.87 213.49 535.87 246.87" style="fill:#00309c"/><path d="M340.86,247.47c-21-64.8-68.07-122.47-4.16-232.86h-7.77C269.19,121.73,311,178.67,331.71,242.49c17.25,53.16,46.19,131,0,232.85H266c-.83,2-1.64,3.88-2.53,5.84H336.7c46.18-101.84,21.42-180.52,4.16-233.71" transform="translate(-26.8 -9.62)" style="fill:#57575a"/><path d="M331.71,242.48c-20.7-63.81-62.52-120.75-2.78-227.87.93-1.67,1.8-3.3,2.78-5H258.53c-63.92,110.38-21,168.07,0,232.86,17.24,53.17,46.18,131,0,232.86h73.18c46.19-101.82,17.25-179.69,0-232.86" transform="translate(-26.8 -9.62)" style="fill:#b1b3b5"/><polygon points="161.78 246.87 40.79 246.87 40.79 359.51 176.15 359.51 176.15 393.35 0 393.35 0 80.9 169.19 80.9 169.19 114.74 40.79 114.74 40.79 213.49 161.78 213.49 161.78 246.87" style="fill:#00309c"/><path d="M1544.78,407.64q-37.62,0-57-22.63t-22.43-63.3l26.54-7.63q1.33,12.6,3.34,22.24a101.62,101.62,0,0,0,5.92,18.9,49.76,49.76,0,0,0,9.55,15.18A41.23,41.23,0,0,0,1525,380a51.37,51.37,0,0,0,20,3.63q44.68,0,44.68-45.83a68.21,68.21,0,0,0-2.57-19,63.29,63.29,0,0,0-8.22-17.37A130.74,130.74,0,0,0,1567,286q-6.21-6.88-16.14-16.62l-56.14-53.84q-28.63-27.5-28.64-63.78,0-32.27,19.19-50t52-18h1.34q34.56,0,52.89,18.71,18.72,19.09,21.77,61.68l-25.2,6.49q-2.69-32.09-13.75-48.12-10.7-15.27-34.37-15.28h-2.29q-20.82.59-32.75,10.89T1493,149.29a54,54,0,0,0,5,23.58q5.07,10.6,17.29,22.44l55.75,52.89q21.57,20.63,34,41.72a88.67,88.67,0,0,1,12.41,45.73q0,34.56-20,53.28T1544.78,407.64Z" transform="translate(-26.8 -9.62)" style="fill:#00309c"/><path d="M1684.36,407.26q-17,0-26-12.61t-9-35.7V177.74h28.83V353q0,17.19,5.16,24.44t16.23,7.25q19.27,0,40.09-22.14V177.74h28.65V403.82h-28.65v-25Q1714.53,407.25,1684.36,407.26Z" transform="translate(-26.8 -9.62)" style="fill:#00309c"/><path d="M1814.39,403.82V177.74H1843v31.13q10.31-17.19,24.15-25.4t28-8.21a47.21,47.21,0,0,1,5,.19v30.93a36.38,36.38,0,0,0-13.75-2.48q-27.5,0-43.34,26.35V403.82Z" transform="translate(-26.8 -9.62)" style="fill:#00309c"/><path d="M1963,403.82l-49.27-226.08h29l36.85,193.05,36.28-193h27.88l-47,226.08Z" transform="translate(-26.8 -9.62)" style="fill:#00309c"/><path d="M2129.26,407.45q-32.46,0-46.78-20.05t-14.32-68.55V261.76q0-33,6.78-52.42t19.85-27.21q13.08-7.81,34.66-7.82,14.33,0,24.44,3.72a44.2,44.2,0,0,1,16.8,10.6q6.69,6.87,10.6,18.61a124.06,124.06,0,0,1,5.44,26,327.19,327.19,0,0,1,1.53,34.28l-.19,20.43H2096.8v33.79q0,35.15,6.78,49.65t25.49,14.51q14.89,0,22.91-9.45t8-34.28V326.49h28.07v12.6q0,32.85-13.75,50.6T2129.26,407.45ZM2096.8,271.5H2160V252.78q0-11.84-.57-19.66a99.87,99.87,0,0,0-2.39-15.57q-1.82-7.73-5.06-12.12a22.94,22.94,0,0,0-9-7.07,32.33,32.33,0,0,0-13.75-2.67q-18.15,0-25.3,12.6t-7.16,47.93Z" transform="translate(-26.8 -9.62)" style="fill:#00309c"/><path d="M2220.72,460.15V437.81q20.63,0,30.93-3.25t13-9.16a26.65,26.65,0,0,0,1.91-9.93,52,52,0,0,0-.57-7.26q-1-7.06-6.69-31.31-4.58-18.91-25-106.74t-21.58-92.42h28.64L2280.68,370l37.81-192.28h28.83l-54.8,242.31q-5,21.57-20.15,30.84t-44.2,9.26Z" transform="translate(-26.8 -9.62)" style="fill:#00309c"/></svg>