<?xml version="1.0" encoding="utf-8"?>
<!-- Generator: Adobe Illustrator 23.0.3, SVG Export Plug-In . SVG Version: 6.00 Build 0)  -->
<svg version="1.1" id="Capa_1" xmlns="http://www.w3.org/2000/svg" xmlns:xlink="http://www.w3.org/1999/xlink" x="0px" y="0px"
	 viewBox="0 0 1348.5 471.6" style="enable-background:new 0 0 1348.5 471.6;" xml:space="preserve">
<style type="text/css">
	.st0{fill:#00309C;}
	.st1{fill:#57575A;}
	.st2{fill:#B1B3B5;}
</style>
<title>esener-survey</title>
<path class="st0" d="M1135.7,85.1c20.4-3.7,50.1-6.5,77.4-6.5c43.1,0,71.4,8.3,90.4,25.5c15.3,13.9,24.6,35.2,24.6,59.8
	c0,40.8-25.9,68.1-58.4,79.3v1.4c23.6,8.3,38,30.6,45.4,63c10.2,43.6,17.6,73.7,24.1,85.8h-41.7c-5.1-9.3-12.1-35.7-20.4-74.6
	c-9.3-43.1-26.4-59.3-63-60.7h-38v135.4h-40.4V85.1z M1176,227.4h41.3c43.1,0,70.4-23.6,70.4-59.3c0-40.3-29.2-57.9-71.8-57.9
	c-19.5,0-32.9,1.4-39.9,3.2V227.4z"/>
<polygon class="st0" points="1068.9,246.9 948,246.9 948,359.5 1083.3,359.5 1083.3,393.4 907.2,393.4 907.2,80.9 1076.4,80.9 
	1076.4,114.7 948,114.7 948,213.5 1068.9,213.5 "/>
<path class="st0" d="M602.6,393.4V80.9h44.5L746.8,239c22.7,36.6,41.3,69.5,55.6,101.5l1.4-0.5c-3.7-41.7-4.7-79.7-4.7-128.4V80.9
	h38v312.5h-40.8l-99.2-158.6c-21.8-34.8-42.7-70.5-58-104.3l-1.4,0.5c2.3,39.4,2.8,77,2.8,128.9v133.5H602.6z"/>
<polygon class="st0" points="535.9,246.9 414.9,246.9 414.9,359.5 550.2,359.5 550.2,393.4 374.1,393.4 374.1,80.9 543.3,80.9 
	543.3,114.7 414.9,114.7 414.9,213.5 535.9,213.5 "/>
<path class="st1" d="M314.1,237.8C293.1,173,246,115.4,309.9,5h-7.8c-59.7,107.1-17.9,164.1,2.8,227.9c17.3,53.2,46.2,131,0,232.9
	h-65.7c-0.8,2-1.6,3.9-2.5,5.8h73.2C356.1,369.7,331.3,291,314.1,237.8"/>
<path class="st2" d="M304.9,232.9C284.2,169,242.4,112.1,302.1,5c0.9-1.7,1.8-3.3,2.8-5h-73.2c-63.9,110.4-21,168.1,0,232.9
	c17.2,53.2,46.2,131,0,232.9h73.2C351.1,363.9,322.2,286,304.9,232.9"/>
<polygon class="st0" points="161.8,246.9 40.8,246.9 40.8,359.5 176.1,359.5 176.1,393.4 0,393.4 0,80.9 169.2,80.9 169.2,114.7 
	40.8,114.7 40.8,213.5 161.8,213.5 "/>
<path class="st0" d="M1518,398c-25.1,0-44.1-7.5-57-22.6s-20.4-36.2-22.4-63.3l26.5-7.6c0.9,8.4,2,15.8,3.3,22.2
	c1.4,6.5,3.3,12.8,5.9,18.9c2.2,5.6,5.5,10.7,9.6,15.2c4,4.2,8.9,7.4,14.3,9.6c6.4,2.5,13.2,3.8,20,3.6c29.8,0,44.7-15.3,44.7-45.8
	c0-6.4-0.8-12.8-2.6-19c-1.8-6.2-4.6-12-8.2-17.4c-3.6-5.4-7.5-10.6-11.9-15.4c-4.1-4.6-9.5-10.1-16.1-16.6l-56.1-53.8
	c-19.1-18.3-28.6-39.6-28.6-63.8c0-21.5,6.4-38.2,19.2-50c12.8-11.8,30.1-17.8,52-18h1.3c23,0,40.7,6.2,52.9,18.7
	c12.5,12.7,19.7,33.3,21.8,61.7l-25.2,6.5c-1.8-21.4-6.4-37.4-13.8-48.1c-7.1-10.2-18.6-15.3-34.4-15.3h-2.3
	c-13.9,0.4-24.8,4-32.8,10.9c-8,6.9-11.9,17.3-11.9,31.2c-0.1,8.1,1.6,16.2,5,23.6c3.4,7.1,9.1,14.5,17.3,22.4l55.8,52.9
	c14.4,13.8,25.7,27.7,34,41.7c8.2,13.8,12.5,29.6,12.4,45.7c0,23-6.7,40.8-20,53.3C1557.3,391.8,1539.8,398,1518,398z"/>
<path class="st0" d="M1657.6,397.6c-11.3,0-20-4.2-26-12.6s-9-20.3-9-35.7V168.1h28.8v175.3c0,11.5,1.7,19.6,5.2,24.4
	c3.4,4.8,8.9,7.3,16.2,7.3c12.8,0,26.2-7.4,40.1-22.1V168.1h28.7v226.1h-28.7v-25C1696.1,388.2,1677.7,397.6,1657.6,397.6z"/>
<path class="st0" d="M1787.6,394.2V168.1h28.6v31.1c6.9-11.5,14.9-19.9,24.2-25.4c9.2-5.5,18.6-8.2,28-8.2c1.7,0,3.3,0,5,0.2v30.9
	c-4.4-1.7-9-2.5-13.8-2.5c-18.3,0-32.8,8.8-43.3,26.4v173.6H1787.6z"/>
<path class="st0" d="M1936.2,394.2l-49.3-226.1h29l36.8,193.1l36.3-193h27.9l-47,226.1L1936.2,394.2z"/>
<path class="st0" d="M2102.5,397.8c-21.6,0-37.2-6.7-46.8-20s-14.3-36.2-14.3-68.5v-57.1c0-22,2.3-39.5,6.8-52.4
	c4.5-12.9,11.1-22,19.9-27.2c8.7-5.2,20.3-7.8,34.7-7.8c9.6,0,17.7,1.2,24.4,3.7c6.3,2.2,12.1,5.8,16.8,10.6
	c4.5,4.6,8,10.8,10.6,18.6c2.7,8.4,4.6,17.2,5.4,26c1.1,11.4,1.6,22.8,1.5,34.3l-0.2,20.4H2070v33.8c0,23.4,2.3,40,6.8,49.6
	s13,14.5,25.5,14.5c9.9,0,17.6-3.2,22.9-9.5c5.3-6.3,8-17.7,8-34.3v-15.7h28.1v12.6c0,21.9-4.6,38.8-13.8,50.6
	C2138.3,391.9,2123.3,397.8,2102.5,397.8z M2070,261.9h63.2v-18.7c0-7.9-0.2-14.4-0.6-19.7c-0.4-5.2-1.2-10.5-2.4-15.6
	c-1.2-5.2-2.9-9.2-5.1-12.1c-2.4-3.1-5.5-5.5-9-7.1c-4.3-1.9-9-2.8-13.8-2.7c-12.1,0-20.5,4.2-25.3,12.6c-4.8,8.4-7.2,24.4-7.2,47.9
	L2070,261.9z"/>
<path class="st0" d="M2193.9,450.5v-22.3c13.8,0,24.1-1.1,30.9-3.3c6.9-2.2,11.2-5.2,13-9.2c1.3-3.2,1.9-6.5,1.9-9.9
	c0-2.4-0.2-4.9-0.6-7.3c-0.7-4.7-2.9-15.1-6.7-31.3c-3.1-12.6-11.4-48.2-25-106.7s-20.8-89.4-21.6-92.4h28.6l39.3,192.3l37.8-192.3
	h28.8l-54.8,242.3c-3.3,14.4-10.1,24.7-20.1,30.8s-24.8,9.3-44.2,9.3L2193.9,450.5z"/>
</svg>
